<?xml version="1.0" encoding="utf-8"?>
<!-- Generator: Adobe Illustrator 16.0.0, SVG Export Plug-In . SVG Version: 6.00 Build 0)  -->
<!DOCTYPE svg PUBLIC "-//W3C//DTD SVG 1.1//EN" "http://www.w3.org/Graphics/SVG/1.1/DTD/svg11.dtd">
<svg version="1.1" xmlns="http://www.w3.org/2000/svg" xmlns:xlink="http://www.w3.org/1999/xlink" x="0px" y="0px" width="100px"
	 height="87.82px" viewBox="0 0 100 87.82" enable-background="new 0 0 100 87.82" xml:space="preserve">
<g id="Layer_2">
</g>
<g id="Layer_1">
	<path fill="#FFFFFF" d="M98.471,15.29c0,4.347-3.523,7.871-7.871,7.871H9.4c-4.347,0-7.871-3.524-7.871-7.871l0,0
		c0-4.347,3.524-7.871,7.871-7.871h81.2C94.947,7.419,98.471,10.943,98.471,15.29L98.471,15.29z"/>
	<path fill="#FFFFFF" d="M98.471,43.035c0,4.347-3.523,7.871-7.871,7.871H9.4c-4.347,0-7.871-3.524-7.871-7.871l0,0
		c0-4.347,3.524-7.871,7.871-7.871H90.6C94.947,35.164,98.471,38.688,98.471,43.035L98.471,43.035z"/>
	<path fill="#FFFFFF" d="M98.471,70.77c0,4.347-3.523,7.871-7.871,7.871H9.4c-4.347,0-7.871-3.524-7.871-7.871l0,0
		c0-4.347,3.524-7.871,7.871-7.871h81.2C94.947,62.898,98.471,66.423,98.471,70.77L98.471,70.77z"/>
</g>
</svg>
