<?xml version="1.0" encoding="utf-8"?>
<!-- Generator: Adobe Illustrator 16.0.0, SVG Export Plug-In . SVG Version: 6.00 Build 0)  -->
<!DOCTYPE svg PUBLIC "-//W3C//DTD SVG 1.1//EN" "http://www.w3.org/Graphics/SVG/1.1/DTD/svg11.dtd">
<svg version="1.1" id="Layer_1" xmlns="http://www.w3.org/2000/svg" xmlns:xlink="http://www.w3.org/1999/xlink" x="0px" y="0px"
	 width="593px" height="185.36px" viewBox="0 0 593 185.36" enable-background="new 0 0 593 185.36" xml:space="preserve">
<g>
	<path fill-rule="evenodd" clip-rule="evenodd" fill="#FFFFFF" d="M187.964,138.104c0.105-15.387-1.571-30.513-7.118-44.949
		c-8.013-20.855-19.568-38.976-40.707-48.769c-17.998-8.338-36.346-11.934-56.134-5.149c-14.842,5.088-26.881,12.611-35,26.419
		c-10.33,17.567-6.939,41.771,8.849,54.634c13.041,10.623,33.167,9.872,42.726,0.049c2.38-2.446,3.788-5.834,5.617-8.748
		c-5.818,1.416-11.021,3.227-16.364,3.868c-10.94,1.315-17.286-5.722-21.881-14.12c-4.531-8.284-1.574-16.402,3.609-23.286
		c5.36-7.116,13.252-10.22,22.047-11.333c27.166-3.441,45.646,18.027,50.736,39.105c4.798,19.861,1.495,39.063-12.439,55.193
		c-11.216,12.982-24.705,21.567-42.352,23.752c-14.576,1.804-28.228-0.571-41.09-6.592c-12.302-5.757-22.541-14.607-30.973-25.446
		C7.574,139.985,3.029,125.35,0.771,109.571c-1.862-13.01-0.162-25.502,3.069-37.98c3.425-13.225,10.262-24.52,18.665-35.222
		C30.39,26.324,40.206,18.775,51.06,12.765C63.253,6.013,76.396,1.917,90.595,0.523c15.095-1.48,29.717,0.125,43.443,5.512
		c16.881,6.626,32.123,16.169,43.601,31.055c7.153,9.276,13.325,18.833,16.841,30.036c4.164,13.274,6.811,26.719,4.243,40.657
		c-1.504,8.166-3.157,16.315-5.15,24.372c-0.612,2.477-2.57,4.619-3.912,6.914C189.095,138.747,188.529,138.427,187.964,138.104z"/>
</g>
<g>
	<path fill="#FFFFFF" d="M289.793,132.675H278.25V94.999h-41.426v37.676h-11.543V47.362h11.543v38.555h41.426V47.362h11.543V132.675
		z"/>
	<path fill="#FFFFFF" d="M347.684,132.675c-0.391-1.913-0.694-3.604-0.908-5.068c-0.215-1.465-0.343-2.938-0.381-4.424
		c-2.148,3.047-4.951,5.596-8.408,7.646s-7.178,3.076-11.162,3.076c-6.602,0-11.631-1.689-15.088-5.068
		c-3.457-3.378-5.186-8.036-5.186-13.975c0-6.054,2.451-10.791,7.354-14.209c4.901-3.417,11.552-5.127,19.951-5.127h12.539v-6.27
		c0-3.71-1.134-6.65-3.398-8.818c-2.266-2.168-5.47-3.252-9.609-3.252c-3.712,0-6.729,0.948-9.053,2.842
		c-2.324,1.895-3.486,4.17-3.486,6.826h-11.016l-0.117-0.352c-0.234-4.609,1.942-8.828,6.533-12.656
		c4.59-3.828,10.518-5.742,17.783-5.742c7.187,0,12.969,1.827,17.344,5.479c4.374,3.653,6.563,8.917,6.563,15.791v30.527
		c0,2.267,0.117,4.453,0.352,6.563s0.664,4.181,1.289,6.211H347.684z M328.523,124.179c4.18,0,7.948-1.071,11.309-3.214
		c3.359-2.143,5.546-4.596,6.563-7.362v-10.283h-12.949c-4.649,0-8.37,1.169-11.162,3.505c-2.793,2.338-4.189,5.084-4.189,8.239
		c0,2.806,0.879,5.025,2.637,6.661C322.488,123.361,325.086,124.179,328.523,124.179z"/>
	<path fill="#FFFFFF" d="M414.949,123.3c-1.992,3.398-4.551,6.016-7.676,7.852c-3.126,1.836-6.738,2.754-10.84,2.754
		c-6.914,0-12.305-2.206-16.172-6.621c-3.867-4.413-5.801-11.288-5.801-20.625V69.276h11.543v37.5
		c0,6.759,0.996,11.407,2.988,13.945c1.992,2.54,5.098,3.809,9.316,3.809c4.102,0,7.49-0.829,10.166-2.49
		c2.675-1.659,4.696-4.014,6.064-7.061V69.276h11.543v63.398h-10.371L414.949,123.3z"/>
	<path fill="#FFFFFF" d="M462,103.319h-7.5v29.355h-11.543V41.269H454.5v52.969h7.383l17.344-24.961h13.828l-21.68,28.779
		l24.785,34.62h-13.594L462,103.319z"/>
	<path fill="#FFFFFF" d="M543.387,132.675c-0.391-1.913-0.694-3.604-0.908-5.068c-0.215-1.465-0.343-2.938-0.381-4.424
		c-2.148,3.047-4.951,5.596-8.408,7.646s-7.178,3.076-11.162,3.076c-6.602,0-11.631-1.689-15.088-5.068
		c-3.457-3.378-5.186-8.036-5.186-13.975c0-6.054,2.451-10.791,7.354-14.209c4.901-3.417,11.552-5.127,19.951-5.127h12.539v-6.27
		c0-3.71-1.134-6.65-3.398-8.818c-2.266-2.168-5.47-3.252-9.609-3.252c-3.712,0-6.729,0.948-9.053,2.842
		c-2.324,1.895-3.486,4.17-3.486,6.826h-11.016l-0.117-0.352c-0.234-4.609,1.942-8.828,6.533-12.656
		c4.59-3.828,10.518-5.742,17.783-5.742c7.187,0,12.969,1.827,17.344,5.479c4.374,3.653,6.563,8.917,6.563,15.791v30.527
		c0,2.267,0.117,4.453,0.352,6.563s0.664,4.181,1.289,6.211H543.387z M524.227,124.179c4.18,0,7.948-1.071,11.309-3.214
		c3.359-2.143,5.546-4.596,6.563-7.362v-10.283h-12.949c-4.649,0-8.37,1.169-11.162,3.505c-2.793,2.338-4.189,5.084-4.189,8.239
		c0,2.806,0.879,5.025,2.637,6.661C518.191,123.361,520.789,124.179,524.227,124.179z"/>
	<path fill="#FFFFFF" d="M582.879,53.046h-11.543V41.269h11.543V53.046z M582.879,132.675h-11.543V69.276h11.543V132.675z"/>
</g>
</svg>
